<?xml version="1.0" encoding="UTF-8"?>
<svg id="Layer_1" data-name="Layer 1" xmlns="http://www.w3.org/2000/svg" viewBox="0 0 223.94834 223.94834">
  <defs>
    <style>
      .cls-1 {
        fill: none;
        stroke: #231f20;
        stroke-linecap: round;
        stroke-linejoin: round;
        stroke-width: 4px;
      }

      .cls-2 {
        fill: #231f20;
      }
    </style>
  </defs>
  <g>
    <path class="cls-1" d="M155.24902,86.88904l22.65246,2.27139c3.64491,.36548,6.60635,3.10214,7.25782,6.70693h0c.49569,2.74283-.43449,5.54978-2.47008,7.45377l-29.84526,27.91586,10.24394,41.0758c1.09421,4.38751-1.09762,8.93116-5.21264,10.80578h-.00001c-2.68961,1.22527-5.79938,1.11123-8.39202-.30774l-37.67466-20.61966-37.37154,19.0531c-3.44943,1.75862-7.63363,1.14471-10.43249-1.53068h0c-2.41576-2.30919-3.37323-5.75573-2.49471-8.98009l10.32725-37.90324-30.88617-29.81489c-1.92452-1.85777-2.71481-4.59943-2.07443-7.19654h0c.74655-3.02769,3.28753-5.2783,6.3832-5.65379l41.74249-5.0631,17.83915-40.56418c1.21649-2.76615,3.95275-4.55198,6.97457-4.55198h0c2.97679,0,5.68098,1.73362,6.92362,4.43863l8.21172,17.87551"/>
    <path class="cls-2" d="M129.90648,72.35266l4.59963-10.45904c.31366-.71322,1.01917-1.17368,1.79832-1.17368h0c.76753,0,1.46478,.44699,1.78518,1.14445l4.81814,10.48827,10.43614,1.04644c.9398,.09423,1.70338,.79985,1.87135,1.72931h0c.12781,.70721-.11203,1.43095-.63688,1.92187l-7.69528,7.19781,2.64129,10.59096c.28213,1.13127-.28301,2.3028-1.34402,2.78616h0c-.69349,.31592-1.49531,.28652-2.16379-.07935l-9.71401-5.31656-9.63585,4.91264c-.8894,.45344-1.96825,.29515-2.68991-.39467h0c-.62288-.5954-.86975-1.48405-.64323-2.31542l2.66277-9.77295-7.96367-7.68745c-.49622-.47901-.69999-1.18591-.53487-1.85555h0c.19249-.78066,.84765-1.36095,1.64584-1.45777l10.76285-1.30547Z"/>
  </g>
  <circle class="cls-1" cx="111.97417" cy="111.97417" r="109.97417"/>
</svg>